<svg id="Warstwa_1" data-name="Warstwa 1" xmlns="http://www.w3.org/2000/svg" viewBox="0 0 468 108"><defs><style>.cls-1{fill:#fff;}.cls-2{fill:#91d1dc;}</style></defs><path class="cls-1" d="M429.94,261.64a9,9,0,0,0-9,9v72a9,9,0,0,0,18,0v-72A9,9,0,0,0,429.94,261.64Z" transform="translate(-186.94 -243.64)"/><path class="cls-1" d="M393.94,261.64h-72a9,9,0,0,0-9,9v36h-9a9,9,0,1,0,0,18h9v18a9,9,0,0,0,9.61,9,9.2,9.2,0,0,0,8.39-9.29V324.64h45a9,9,0,0,0,9-9.6,9.21,9.21,0,0,0-9.29-8.4h-44.7v-27h62.7a9.22,9.22,0,0,0,9.29-8.4A9,9,0,0,0,393.94,261.64Z" transform="translate(-186.94 -243.64)"/><path class="cls-1" d="M645.94,261.64a9,9,0,0,0-9,9v36h-54v-36a9,9,0,0,0-18,0v72a9,9,0,0,0,18,0v-18h54v18a9,9,0,0,0,18,0v-72A9,9,0,0,0,645.94,261.64Z" transform="translate(-186.94 -243.64)"/><path class="cls-1" d="M483.94,279.64h54a9,9,0,0,0,0-18h-54a27,27,0,0,0,0,54h36a9,9,0,0,1,0,18h-54a9,9,0,1,0,0,18h54a27,27,0,0,0,0-54h-36a9,9,0,1,1,0-18Z" transform="translate(-186.94 -243.64)"/><path class="cls-2" d="M267.94,243.64h-5.61a9,9,0,0,0-5.93,2.22L190,304a9,9,0,0,0-3.08,6.77v4.92a9,9,0,0,0,9,9h63v17.69a9.21,9.21,0,0,0,8.41,9.29,9,9,0,0,0,9.59-9v-90A9,9,0,0,0,267.94,243.64Zm-9,63H214.28l44.66-39.08Z" transform="translate(-186.94 -243.64)"/></svg>