<?xml version="1.0" encoding="utf-8"?>
<!-- Generator: Adobe Illustrator 24.1.2, SVG Export Plug-In . SVG Version: 6.00 Build 0)  -->
<svg version="1.1" id="Warstwa_1" xmlns="http://www.w3.org/2000/svg" xmlns:xlink="http://www.w3.org/1999/xlink" x="0px" y="0px"
	 viewBox="0 0 841.89 595.28" style="enable-background:new 0 0 841.89 595.28;" xml:space="preserve">
<style type="text/css">
	.st0{fill:#0C2A3B;}
	.st1{fill:#FFFFFF;}
</style>
<g>
	<path class="st0" d="M429.94,261.64c-4.97,0-9,4.03-9,9v72c0,4.97,4.03,9,9,9s9-4.03,9-9v-72
		C438.94,265.67,434.92,261.64,429.94,261.64z"/>
	<path class="st0" d="M393.94,261.64h-72c-4.97,0-9,4.03-9,9v36h-9c-4.97,0-9,4.03-9,9s4.03,9,9,9h9v18c0,5.17,4.36,9.32,9.6,8.98
		c4.78-0.31,8.4-4.5,8.4-9.29v-17.69h45c5.17,0,9.32-4.36,8.98-9.6c-0.31-4.78-4.5-8.4-9.29-8.4h-44.69v-27h62.69
		c4.79,0,8.98-3.62,9.29-8.4C403.27,266,399.11,261.64,393.94,261.64z"/>
	<path class="st0" d="M645.94,261.64c-4.97,0-9,4.03-9,9v36h-54v-36c0-4.97-4.03-9-9-9s-9,4.03-9,9v72c0,4.97,4.03,9,9,9s9-4.03,9-9
		v-18h54v18c0,4.97,4.03,9,9,9s9-4.03,9-9v-72C654.94,265.67,650.92,261.64,645.94,261.64z"/>
	<path class="st0" d="M483.94,279.64h54c4.97,0,9-4.03,9-9s-4.03-9-9-9h-54c-14.91,0-27,12.09-27,27c0,7.46,3.02,14.2,7.91,19.09
		c4.89,4.89,11.63,7.91,19.09,7.91h36c4.96,0,9,4.04,9,9c0,4.96-4.04,9-9,9h-54c-4.97,0-9,4.03-9,9s4.03,9,9,9h54
		c14.91,0,27-12.09,27-27c0-7.46-3.02-14.2-7.91-19.09c-4.89-4.89-11.63-7.91-19.09-7.91h-36c-4.96,0-9-4.04-9-9
		C474.94,283.68,478.98,279.64,483.94,279.64z"/>
	<path class="st1" d="M267.94,243.64h-5.62c-2.18,0-4.29,0.79-5.93,2.23l-66.38,58.08c-1.95,1.71-3.07,4.18-3.07,6.77v4.92
		c0,4.97,4.03,9,9,9h63v17.69c0,4.79,3.62,8.98,8.4,9.29c5.24,0.34,9.6-3.81,9.6-8.98v-18v-72
		C276.94,247.67,272.92,243.64,267.94,243.64z M258.94,306.64h-44.67l44.67-39.08V306.64z"/>
</g>
</svg>
