<?xml version="1.0" encoding="utf-8"?>
<!-- Generator: Adobe Illustrator 25.0.0, SVG Export Plug-In . SVG Version: 6.00 Build 0)  -->
<svg version="1.1" id="Warstwa_1" xmlns="http://www.w3.org/2000/svg" xmlns:xlink="http://www.w3.org/1999/xlink" x="0px" y="0px"
	 viewBox="0 0 410.3 105.9" style="enable-background:new 0 0 410.3 105.9;" xml:space="preserve">
<style type="text/css">
	.st0{fill:#91D1DC;}
	.st1{fill:#FFFFFF;}
</style>
<g>
	<path class="st0" d="M69.2,12.7v56.5h-38l21.7-21.7c1.1-1.1,1.6-2.5,1.6-4V32.5c0-2.7-3.3-4.1-5.2-2.2L0.9,78.7
		c-1.9,1.9-0.6,5.2,2.2,5.2h13.4h52.7v19c0,1.7,1.4,3.1,3.1,3.1h8.6c1.7,0,3.1-1.4,3.1-3.1v-19V69.2V3.1c0-2.7-3.3-4.1-5.2-2.2
		l-7.8,7.8C69.8,9.8,69.2,11.2,69.2,12.7z"/>
	<path class="st1" d="M213.1,32.5h-8.6c-1.7,0-3.1,1.4-3.1,3.1v4.1l0,0.2v58.8l0,0.2v4.1c0,1.7,1.4,3.1,3.1,3.1h8.6
		c1.7,0,3.1-1.4,3.1-3.1V35.5C216.2,33.8,214.8,32.5,213.1,32.5z"/>
	<path class="st1" d="M181.6,37.7l-7.9,7.9c-1.1,1.1-2.5,1.6-4,1.6H128l0,0v22l0,0h38.7c1.7,0,3.1,1.4,3.1,3.1v3.8
		c0,0.2,0,0.3,0,0.5c0,0.1,0,0.2,0,0.3v4c0,1.7-1.4,3.1-3.1,3.1H128l0,0v19c0,1.7-1.4,3.1-3.1,3.1h-8.6c-1.7,0-3.1-1.4-3.1-3.1v-19
		h-11.6c-1.7,0-3.1-1.4-3.1-3.1v-8.6c0-1.7,1.4-3.1,3.1-3.1h11.6V35.5c0-1.7,1.4-3.1,3.1-3.1h63.1C182.1,32.5,183.5,35.7,181.6,37.7
		z"/>
	<path class="st1" d="M407.3,69.2h-7.4l0,0V39.8v-4.3c0-1.7-1.4-3.1-3.1-3.1h-8.6c-1.7,0-3.1,1.4-3.1,3.1v4.3v29.4l0,0h-44l0,0V39.8
		v-4.3c0-1.7-1.4-3.1-3.1-3.1h-8.6c-1.7,0-3.1,1.4-3.1,3.1v4.3v58.8v4.3c0,1.7,1.4,3.1,3.1,3.1h8.6c1.7,0,3.1-1.4,3.1-3.1v-4.3V83.9
		l0,0h44l0,0v14.7v4.3c0,1.7,1.4,3.1,3.1,3.1h8.6c1.7,0,3.1-1.4,3.1-3.1v-4.3V84l0,0l9.6-9.6C411.3,72.5,410,69.2,407.3,69.2z"/>
	<path class="st1" d="M286,61.8h-29.4c-4.1,0-7.5-3.4-7.3-7.5c0.1-4,3.6-7.2,7.7-7.2l15.9,0H290h5c1.5,0,2.9-0.6,4-1.6l7.9-7.9
		c1.9-1.9,0.6-5.2-2.2-5.2h-32h-15.7c-12,0-22.2,9.3-22.6,21.3c-0.4,12.5,9.6,22.8,22,22.8h29.1c4,0,7.6,3.1,7.7,7.2
		c0.1,4.1-3.2,7.5-7.3,7.5h-16.2h-17.3h-5c-1.5,0-2.9,0.6-4,1.6l-7.9,7.9c-1.9,1.9-0.6,5.2,2.2,5.2h32h15.7c12,0,22.2-9.3,22.6-21.3
		C308.4,72.1,298.4,61.8,286,61.8z"/>
</g>
</svg>
