<?xml version="1.0" encoding="utf-8"?>
<!-- Generator: Adobe Illustrator 25.0.0, SVG Export Plug-In . SVG Version: 6.00 Build 0)  -->
<svg version="1.1" id="Warstwa_1" xmlns="http://www.w3.org/2000/svg" xmlns:xlink="http://www.w3.org/1999/xlink" x="0px" y="0px"
	 viewBox="0 0 403.1 108" style="enable-background:new 0 0 403.1 108;" xml:space="preserve">
<style type="text/css">
	.st0{fill:#91D1DC;}
	.st1{fill:#0C2A3B;}
</style>
<polygon class="st0" points="72,14.4 72,72 34.7,72 57.6,49.2 57.6,28.8 0,86.4 20.3,86.4 72,86.4 72,108 86.4,108 86.4,86.4 
	86.4,72 86.4,0 "/>
<g>
	<path class="st1" d="M201.5,43c0,0.1,0,0.1,0,0.2v57.6c0,0.1,0,0.1,0,0.2v7h14.4V36h-14.4V43z"/>
	<path class="st1" d="M251.9,50.4h15.9h12.9h7.2L302.3,36h-7.2h-27.3h-15.9c-11.9,0-21.6,9.7-21.6,21.6s9.7,21.6,21.6,21.6h28.8
		c4,0,7.2,3.2,7.2,7.2c0,4-3.2,7.2-7.2,7.2h-15.9h-12.9h-7.2L230.3,108h7.2h27.3h15.9c11.9,0,21.6-9.7,21.6-21.6
		s-9.7-21.6-21.6-21.6h-28.8c-4,0-7.2-3.2-7.2-7.2C244.7,53.6,247.9,50.4,251.9,50.4z"/>
	<path class="st1" d="M129.3,36h-6.9h-7.5v14.4V72H108h-7.2v14.4h7.2h6.9V108h7.2c0.1,0,0.2,0,0.3,0c0.2,0,0.3,0,0.5,0h6.4v-5.3
		c0.2-0.7,0.3-1.4,0.3-2.2V86.4h36h7.2v-6.9c0-0.1,0-0.2,0-0.3c0-0.2,0-0.3,0-0.5V72h-7.4h-35.7V50.4h35.7h7.4L187.2,36h-7.2H129.3z
		"/>
	<polygon class="st1" points="388.7,72 388.7,43.2 388.7,36 374.3,36 374.3,43.2 374.3,72 331.1,72 331.1,43.2 331.1,36 316.7,36 
		316.7,43.2 316.7,100.8 316.7,108 331.1,108 331.1,100.8 331.1,86.4 374.3,86.4 374.3,100.8 374.3,108 388.7,108 388.7,100.8 
		388.7,86.4 403.1,72 	"/>
</g>
</svg>
