<svg id="Group_1" data-name="Group 1" xmlns="http://www.w3.org/2000/svg" width="172.985" height="24.021" viewBox="0 0 172.985 24.021">
  <path id="Path_1" data-name="Path 1" d="M8.567,16.031a14.234,14.234,0,0,0,2.63-.276,12.882,12.882,0,0,0,2.5-.726v3.206a16.315,16.315,0,0,1-2.956.927,13.838,13.838,0,0,1-2.73.25c-2.981,0-5.06-.751-6.262-2.229C.6,15.68,0,13.175,0,9.669,0,6.312.7,3.883,2.1,2.33S5.761,0,8.867,0c.927,0,1.753.025,2.455.05a19.2,19.2,0,0,1,1.954.225V3.432c-.751-.075-1.478-.1-2.2-.15-.7-.025-1.453-.025-2.2-.025-2.029,0-3.382.476-4.108,1.4-.7.952-1.077,2.605-1.077,5.01s.326,4.058.977,4.985C5.335,15.555,6.613,16.031,8.567,16.031Z" transform="translate(0)" fill="#ffffff"/>
  <path id="Path_2" data-name="Path 2" d="M20.358,9.29c0,2.805-.526,4.784-1.6,5.962S15.849,17,13.269,17c-2.63,0-4.459-.576-5.536-1.728S6.13,12.12,6.13,9.29c0-2.78.551-4.759,1.628-5.936S10.664,1.6,13.269,1.6s4.434.576,5.511,1.728C19.832,4.481,20.358,6.459,20.358,9.29ZM9.612,9.265c0,1.854.225,3.056.7,3.632.451.576,1.453.877,2.956.877,1.453,0,2.43-.3,2.906-.877.476-.6.7-1.8.7-3.632,0-1.854-.225-3.081-.676-3.657q-.676-.9-2.931-.9-2.217,0-2.931.9C9.862,6.209,9.612,7.436,9.612,9.265Z" transform="translate(9.225 2.408)" fill="#ffffff"/>
  <path id="Path_3" data-name="Path 3" d="M16.362,16.744H12.88V1.916h3.206l.15,1.1h.1a12,12,0,0,1,2.229-1.077,6.831,6.831,0,0,1,2.079-.351,5.484,5.484,0,0,1,2.129.376A3.088,3.088,0,0,1,24.2,3.118h.1a10.242,10.242,0,0,1,2.43-1.127,8.513,8.513,0,0,1,2.58-.4,4.242,4.242,0,0,1,3.256,1.177,4.957,4.957,0,0,1,1.077,3.482v10.5H30.163V6.725a1.878,1.878,0,0,0-.551-1.5,2.62,2.62,0,0,0-1.753-.476,6.1,6.1,0,0,0-1.478.175A7.424,7.424,0,0,0,25,5.4a1.323,1.323,0,0,1,.025.326V16.769H21.547V6.725A1.878,1.878,0,0,0,21,5.222a2.62,2.62,0,0,0-1.753-.476,4.965,4.965,0,0,0-1.328.175,6.176,6.176,0,0,0-1.478.526v11.3Z" transform="translate(19.382 2.393)" fill="#ffffff"/>
  <path id="Path_4" data-name="Path 4" d="M25.912,21.313H22.43V1.9h3.031l.2,1.353h.15a5.284,5.284,0,0,1,2-1.227A7.871,7.871,0,0,1,30.471,1.6a4.935,4.935,0,0,1,4.283,1.778c.852,1.177,1.277,3.156,1.277,5.911,0,2.73-.526,4.684-1.6,5.911-1.052,1.2-2.805,1.829-5.235,1.829a13.775,13.775,0,0,1-1.854-.125,8.693,8.693,0,0,1-1.453-.376v4.784ZM32.55,9.29a6.683,6.683,0,0,0-.676-3.582,3,3,0,0,0-2.63-.977,8.231,8.231,0,0,0-1.778.2,7.688,7.688,0,0,0-1.553.6V13.3a5.315,5.315,0,0,0,1.252.351,10.164,10.164,0,0,0,1.6.125c1.553,0,2.555-.3,3.056-.927A6.159,6.159,0,0,0,32.55,9.29Z" transform="translate(33.754 2.408)" fill="#ffffff"/>
  <path id="Path_5" data-name="Path 5" d="M32.974,17a4.452,4.452,0,0,1-3.356-1.127,5.045,5.045,0,0,1-1.077-3.532,4.191,4.191,0,0,1,1.277-3.482c.852-.676,2.33-1.027,4.409-1.027a14.379,14.379,0,0,1,1.778.1,10.609,10.609,0,0,1,1.553.25V6.935a1.992,1.992,0,0,0-.726-1.7,3.907,3.907,0,0,0-2.279-.551,24.815,24.815,0,0,0-2.5.1,17.287,17.287,0,0,0-2.079.3V2.126a17.112,17.112,0,0,1,2.48-.4A29.767,29.767,0,0,1,35.629,1.6a5.855,5.855,0,0,1,4.083,1.252,4.829,4.829,0,0,1,1.353,3.732v10.17H37.858l-.15-1.328h-.05A8.061,8.061,0,0,1,32.974,17Zm1.678-6.663a4.61,4.61,0,0,0-2.229.376,1.551,1.551,0,0,0-.6,1.428,1.849,1.849,0,0,0,.5,1.453,2.684,2.684,0,0,0,1.7.426,8.018,8.018,0,0,0,3.557-.9V10.567a13.881,13.881,0,0,0-1.428-.175C35.679,10.367,35.178,10.342,34.652,10.342Z" transform="translate(42.948 2.408)" fill="#ffffff"/>
  <path id="Path_6" data-name="Path 6" d="M38.3,16.729H34.82V1.9h3.006l.15,1.5h.1a6.947,6.947,0,0,1,2.279-1.378A8.31,8.31,0,0,1,43.236,1.6a5.185,5.185,0,0,1,3.757,1.227,4.833,4.833,0,0,1,1.3,3.632v10.27H44.814V6.91a1.891,1.891,0,0,0-.7-1.628,3.316,3.316,0,0,0-2.079-.551,7.153,7.153,0,0,0-1.929.25,6.462,6.462,0,0,0-1.753.777V16.729Z" transform="translate(52.399 2.408)" fill="#ffffff"/>
  <path id="Path_7" data-name="Path 7" d="M43.956,18.4a2.679,2.679,0,0,0,1.653-.4,3.3,3.3,0,0,0,.927-1.7L40.7,1.72h3.908l3.707,11.147L51.822,1.72h3.757L49.893,17.225a7.3,7.3,0,0,1-2.054,3.256,4.939,4.939,0,0,1-3.206.952c-.4,0-.8-.025-1.227-.05a9.822,9.822,0,0,1-1.1-.15V18.3a1.891,1.891,0,0,0,.576.075C43.08,18.377,43.455,18.4,43.956,18.4Z" transform="translate(61.247 2.588)" fill="#ffffff"/>
  <path id="Path_8" data-name="Path 8" d="M50.037,9.641H46.63V6.31h3.407Z" transform="translate(70.171 9.496)" fill="#d43663"/>
  <path id="Path_9" data-name="Path 9" d="M60.172,12.987v2.906a8.628,8.628,0,0,1-2.33.777,14.971,14.971,0,0,1-3.206.326c-2.129,0-3.607-.576-4.484-1.7-.852-1.152-1.3-3.156-1.3-6.012,0-2.83.551-4.809,1.678-5.962S53.559,1.59,56.289,1.59c.651,0,1.252.025,1.778.05a14.569,14.569,0,0,1,1.7.175V4.921c-.777-.05-1.453-.1-2.054-.125-.576-.025-1.052-.05-1.453-.05-1.653,0-2.705.3-3.206.877s-.726,1.8-.726,3.707a7.485,7.485,0,0,0,.576,3.607,2.813,2.813,0,0,0,2.455.877,14.607,14.607,0,0,0,2.53-.225A13.525,13.525,0,0,0,60.172,12.987Z" transform="translate(73.512 2.393)" fill="#d43663"/>
  <path id="Path_10" data-name="Path 10" d="M68.248,9.29c0,2.805-.526,4.784-1.6,5.962S63.739,17,61.159,17c-2.63,0-4.459-.576-5.536-1.728s-1.6-3.156-1.6-5.987c0-2.78.551-4.759,1.628-5.936S58.554,1.6,61.159,1.6s4.434.576,5.511,1.728C67.722,4.481,68.248,6.459,68.248,9.29ZM57.5,9.265c0,1.854.225,3.056.7,3.632.451.576,1.453.877,2.956.877,1.453,0,2.43-.3,2.906-.877.476-.6.7-1.8.7-3.632,0-1.854-.225-3.081-.676-3.657s-1.428-.877-2.931-.877q-2.217,0-2.931.9C57.752,6.209,57.5,7.436,57.5,9.265Z" transform="translate(81.292 2.408)" fill="#d43663"/>
  <path id="Path_11" data-name="Path 11" d="M64.252,16.744H60.77V1.916h3.206l.15,1.1h.1a12,12,0,0,1,2.229-1.077,6.831,6.831,0,0,1,2.079-.351,5.484,5.484,0,0,1,2.129.376,3.088,3.088,0,0,1,1.428,1.152h.1a10.242,10.242,0,0,1,2.43-1.127,8.513,8.513,0,0,1,2.58-.4,4.242,4.242,0,0,1,3.256,1.177,4.957,4.957,0,0,1,1.077,3.482v10.5H78.053V6.725a1.878,1.878,0,0,0-.551-1.5,2.62,2.62,0,0,0-1.753-.476,6.1,6.1,0,0,0-1.478.175,7.425,7.425,0,0,0-1.378.476,1.323,1.323,0,0,1,.025.326V16.769H69.437V6.725a1.878,1.878,0,0,0-.551-1.5,2.62,2.62,0,0,0-1.753-.476,4.965,4.965,0,0,0-1.328.175,6.176,6.176,0,0,0-1.478.526v11.3Z" transform="translate(91.45 2.393)" fill="#d43663"/>
</svg>
