<svg xmlns="http://www.w3.org/2000/svg" width="210.253" height="42.763" viewBox="0 0 210.253 42.763">
  <g id="Group_1" data-name="Group 1" transform="translate(-54 -72)">
    <path id="Path_1" data-name="Path 1" d="M68.254,72H57.564A3.563,3.563,0,0,0,54,75.564V111.2a3.564,3.564,0,0,0,7.127,0V100.509h7.127a14.254,14.254,0,1,0,0-28.509Zm0,21.382H61.127V79.127h7.127a7.127,7.127,0,1,1,0,14.254Z" transform="translate(0 0)" fill="#51a136"/>
    <path id="Path_2" data-name="Path 2" d="M548.7,79.127h-3.442V75.685a3.645,3.645,0,0,0-3.326-3.678,3.564,3.564,0,0,0-3.8,3.556v3.564h-3.564A3.563,3.563,0,0,0,531,82.691h0a3.563,3.563,0,0,0,3.564,3.564h3.564v3.564a3.563,3.563,0,0,0,3.564,3.564h0a3.563,3.563,0,0,0,3.564-3.564V86.254h3.564a3.564,3.564,0,0,0,3.556-3.8A3.645,3.645,0,0,0,548.7,79.127Z" transform="translate(-288.129)" fill="#51a136"/>
    <path id="Path_3" data-name="Path 3" d="M147.564,90A3.563,3.563,0,0,0,144,93.564v28.509a3.564,3.564,0,0,0,7.127,0V93.564A3.563,3.563,0,0,0,147.564,90Z" transform="translate(-54.364 -10.873)" fill="#fff"/>
    <path id="Path_4" data-name="Path 4" d="M208.509,104.254a14.254,14.254,0,1,0-28.509,0h0v17.818a3.564,3.564,0,0,0,7.127,0v-3.564h14.254v3.564a3.564,3.564,0,1,0,7.127,0V104.254Zm-7.127,7.127H187.127v-7.127h0a7.127,7.127,0,0,1,14.254,0h0Z" transform="translate(-76.109 -10.873)" fill="#fff"/>
    <path id="Path_5" data-name="Path 5" d="M419.569,105.936A10.689,10.689,0,0,0,410.254,90H399.564A3.563,3.563,0,0,0,396,93.564v28.509a3.563,3.563,0,0,0,3.564,3.564h14.254a10.689,10.689,0,0,0,5.751-19.7Zm-16.442-8.808h7.127a3.564,3.564,0,0,1,0,7.127h-7.127Zm10.691,21.382H403.127v-7.127h10.691a3.564,3.564,0,0,1,0,7.127Z" transform="translate(-206.583 -10.873)" fill="#fff"/>
    <path id="Path_6" data-name="Path 6" d="M488.364,117.258a6.976,6.976,0,0,1-2.319-2.319c-4.546-7.457-.409-15.154,6.133-16.816a3.539,3.539,0,0,0,2.64-3.441h0a3.553,3.553,0,0,0-4.39-3.47c-10.583,2.682-17.394,14.837-10.875,26.91a13.932,13.932,0,0,0,5.628,5.628c12.072,6.519,24.228-.292,26.91-10.875a3.553,3.553,0,0,0-3.47-4.39h0a3.539,3.539,0,0,0-3.441,2.64C503.518,117.667,495.821,121.8,488.364,117.258Z" transform="translate(-255.51 -11.54)" fill="#fff"/>
    <path id="Path_7" data-name="Path 7" d="M300.291,90a12.458,12.458,0,0,0-8.909,3.738A12.477,12.477,0,0,0,270,102.473v19.6a3.564,3.564,0,0,0,7.127,0v-19.6a5.345,5.345,0,1,1,10.691,0v19.6a3.564,3.564,0,1,0,7.127,0v-19.6a5.345,5.345,0,0,1,10.691,0v19.6a3.564,3.564,0,1,0,7.127,0v-19.6A12.471,12.471,0,0,0,300.291,90Z" transform="translate(-130.473 -10.873)" fill="#fff"/>
  </g>
</svg>
